<svg xmlns="http://www.w3.org/2000/svg" viewBox="0 0 471.81 497.66"><defs><style>.cls-1{fill:#fff;}.cls-2{fill:#55c1f0;}</style></defs><g id="Layer_2" data-name="Layer 2"><g id="Layer_1-2" data-name="Layer 1"><path class="cls-1" d="M346.39,492.66l-87.84-176h-63V234.35h70.88c24.1,0,42.62-6.57,55.05-19.53s18.65-31,18.65-53.66-6.32-40.86-18.8-54-31-19.88-54.9-19.88H195.51V5h70.88C324,5,369.51,17.85,401.73,43.19c31.85,25.07,48,61.08,48,107,0,33.5-6.82,61.56-20.28,83.42s-34.85,39.79-63.67,53.41l-4.68,2.22L466.25,492.66Z"/><path class="cls-2" d="M266.39,10c28.45,0,54.07,3.18,76.14,9.44,21.7,6.15,40.58,15.47,56.11,27.68a115.6,115.6,0,0,1,34.49,43.62c7.69,17.11,11.59,37.13,11.59,59.49,0,32.56-6.57,59.74-19.53,80.8s-33.63,38.31-61.56,51.51L354.26,287l4.76,9.21,99,191.48H349.48L264.4,317.17l-2.76-5.54H200.51V239.35h65.88c25.52,0,45.25-7.09,58.66-21.07s20.05-33.09,20.05-57.12-6.8-43.35-20.19-57.43c-13.53-14.23-33.22-21.44-58.52-21.44H200.51V10h65.88m0-10H190.51V92.29h75.88q33.84,0,51.27,18.33t17.44,50.54q0,32.21-17.27,50.2t-51.44,18H190.51v92.28h65l87.84,176H471.81v-5.14L367.91,291.58q44.77-21.15,65.79-55.31t21-86q0-71.7-49.9-111T266.39,0Z"/><polygon class="cls-2" points="224.42 394.37 119.97 394.37 119.97 0 0 0 0 497.66 274.81 497.66 274.81 496.47 224.42 394.37"/></g></g></svg>